<mxfile host="65bd71144e">
    <diagram id="6Njo-a6KqQAlifme5rGv" name="役立ち情報一覧">
        <mxGraphModel dx="938" dy="398" grid="1" gridSize="10" guides="1" tooltips="1" connect="1" arrows="1" fold="1" page="1" pageScale="1" pageWidth="827" pageHeight="1169" math="0" shadow="0">
            <root>
                <mxCell id="0"/>
                <mxCell id="1" parent="0"/>
                <mxCell id="3" value="" style="rounded=0;whiteSpace=wrap;html=1;" parent="1" vertex="1">
                    <mxGeometry x="80" y="40" width="590" height="560" as="geometry"/>
                </mxCell>
                <mxCell id="4" value="Topに戻る" style="text;html=1;strokeColor=none;fillColor=none;align=center;verticalAlign=middle;whiteSpace=wrap;rounded=0;" parent="1" vertex="1">
                    <mxGeometry x="100" y="60" width="80" height="30" as="geometry"/>
                </mxCell>
                <mxCell id="5" value="役立ち情報" style="text;html=1;strokeColor=none;fillColor=none;align=center;verticalAlign=middle;whiteSpace=wrap;rounded=0;" parent="1" vertex="1">
                    <mxGeometry x="300" y="60" width="150" height="30" as="geometry"/>
                </mxCell>
                <mxCell id="6" value="タイトル" style="rounded=0;whiteSpace=wrap;html=1;" parent="1" vertex="1">
                    <mxGeometry x="100" y="140" width="160" height="30" as="geometry"/>
                </mxCell>
                <mxCell id="8" value="投稿者" style="rounded=0;whiteSpace=wrap;html=1;" parent="1" vertex="1">
                    <mxGeometry x="359" y="140" width="91" height="30" as="geometry"/>
                </mxCell>
                <mxCell id="9" value="投稿日時" style="rounded=0;whiteSpace=wrap;html=1;" parent="1" vertex="1">
                    <mxGeometry x="450" y="140" width="100" height="30" as="geometry"/>
                </mxCell>
                <mxCell id="10" value="ゲーム名" style="rounded=0;whiteSpace=wrap;html=1;" parent="1" vertex="1">
                    <mxGeometry x="260" y="140" width="100" height="30" as="geometry"/>
                </mxCell>
                <mxCell id="11" value="投稿" style="text;html=1;strokeColor=none;fillColor=none;align=center;verticalAlign=middle;whiteSpace=wrap;rounded=0;" parent="1" vertex="1">
                    <mxGeometry x="560" y="60" width="80" height="30" as="geometry"/>
                </mxCell>
                <mxCell id="12" value="○○ギアの効果まとめ" style="rounded=0;whiteSpace=wrap;html=1;" parent="1" vertex="1">
                    <mxGeometry x="100" y="170" width="160" height="30" as="geometry"/>
                </mxCell>
                <mxCell id="14" value="hasutaros" style="rounded=0;whiteSpace=wrap;html=1;" parent="1" vertex="1">
                    <mxGeometry x="360" y="170" width="90" height="30" as="geometry"/>
                </mxCell>
                <mxCell id="15" value="2022/10/15 13:00" style="rounded=0;whiteSpace=wrap;html=1;" parent="1" vertex="1">
                    <mxGeometry x="450" y="170" width="100" height="30" as="geometry"/>
                </mxCell>
                <mxCell id="16" value="splatoon3" style="rounded=0;whiteSpace=wrap;html=1;" parent="1" vertex="1">
                    <mxGeometry x="260" y="170" width="100" height="30" as="geometry"/>
                </mxCell>
                <mxCell id="17" value="更新日時" style="rounded=0;whiteSpace=wrap;html=1;" parent="1" vertex="1">
                    <mxGeometry x="550" y="140" width="100" height="30" as="geometry"/>
                </mxCell>
                <mxCell id="18" value="2022/10/21 15:00" style="rounded=0;whiteSpace=wrap;html=1;" parent="1" vertex="1">
                    <mxGeometry x="550" y="170" width="100" height="30" as="geometry"/>
                </mxCell>
                <mxCell id="19" value="各ギア最高率まとめ" style="rounded=0;whiteSpace=wrap;html=1;" parent="1" vertex="1">
                    <mxGeometry x="100" y="200" width="160" height="30" as="geometry"/>
                </mxCell>
                <mxCell id="20" value="hasutaros" style="rounded=0;whiteSpace=wrap;html=1;" parent="1" vertex="1">
                    <mxGeometry x="360" y="200" width="90" height="30" as="geometry"/>
                </mxCell>
                <mxCell id="21" value="2022/10/21 20:00" style="rounded=0;whiteSpace=wrap;html=1;" parent="1" vertex="1">
                    <mxGeometry x="450" y="200" width="100" height="30" as="geometry"/>
                </mxCell>
                <mxCell id="22" value="splatoon3" style="rounded=0;whiteSpace=wrap;html=1;" parent="1" vertex="1">
                    <mxGeometry x="260" y="200" width="100" height="30" as="geometry"/>
                </mxCell>
                <mxCell id="23" value="2022/10/21 20:00" style="rounded=0;whiteSpace=wrap;html=1;" parent="1" vertex="1">
                    <mxGeometry x="550" y="200" width="100" height="30" as="geometry"/>
                </mxCell>
                <mxCell id="24" value="★最強★パーク構成" style="rounded=0;whiteSpace=wrap;html=1;" parent="1" vertex="1">
                    <mxGeometry x="100" y="230" width="160" height="30" as="geometry"/>
                </mxCell>
                <mxCell id="25" value="popotaros" style="rounded=0;whiteSpace=wrap;html=1;" parent="1" vertex="1">
                    <mxGeometry x="360" y="230" width="90" height="30" as="geometry"/>
                </mxCell>
                <mxCell id="26" value="2022/10/21 20:00" style="rounded=0;whiteSpace=wrap;html=1;" parent="1" vertex="1">
                    <mxGeometry x="450" y="230" width="100" height="30" as="geometry"/>
                </mxCell>
                <mxCell id="27" value="Dead by Daylight" style="rounded=0;whiteSpace=wrap;html=1;" parent="1" vertex="1">
                    <mxGeometry x="260" y="230" width="100" height="30" as="geometry"/>
                </mxCell>
                <mxCell id="28" value="2022/10/21 20:00" style="rounded=0;whiteSpace=wrap;html=1;" parent="1" vertex="1">
                    <mxGeometry x="550" y="230" width="100" height="30" as="geometry"/>
                </mxCell>
            </root>
        </mxGraphModel>
    </diagram>
    <diagram name="役立ち情報投稿" id="-R3G5anZ_CrvRG1I7BAj">
        <mxGraphModel dx="938" dy="398" grid="1" gridSize="10" guides="1" tooltips="1" connect="1" arrows="1" fold="1" page="1" pageScale="1" pageWidth="827" pageHeight="1169" math="0" shadow="0">
            <root>
                <mxCell id="lihsfqMF-rrV9TS9kK8D-0"/>
                <mxCell id="lihsfqMF-rrV9TS9kK8D-1" parent="lihsfqMF-rrV9TS9kK8D-0"/>
                <mxCell id="lihsfqMF-rrV9TS9kK8D-2" value="" style="rounded=0;whiteSpace=wrap;html=1;" parent="lihsfqMF-rrV9TS9kK8D-1" vertex="1">
                    <mxGeometry x="80" y="40" width="590" height="560" as="geometry"/>
                </mxCell>
                <mxCell id="lihsfqMF-rrV9TS9kK8D-3" value="Topに戻る" style="text;html=1;strokeColor=none;fillColor=none;align=center;verticalAlign=middle;whiteSpace=wrap;rounded=0;" parent="lihsfqMF-rrV9TS9kK8D-1" vertex="1">
                    <mxGeometry x="100" y="60" width="80" height="30" as="geometry"/>
                </mxCell>
                <mxCell id="lihsfqMF-rrV9TS9kK8D-4" value="役立ち情報投稿" style="text;html=1;strokeColor=none;fillColor=none;align=center;verticalAlign=middle;whiteSpace=wrap;rounded=0;" parent="lihsfqMF-rrV9TS9kK8D-1" vertex="1">
                    <mxGeometry x="300" y="60" width="150" height="30" as="geometry"/>
                </mxCell>
                <mxCell id="lihsfqMF-rrV9TS9kK8D-27" value="ゲーム選択" style="text;html=1;strokeColor=none;fillColor=none;align=center;verticalAlign=middle;whiteSpace=wrap;rounded=0;" parent="lihsfqMF-rrV9TS9kK8D-1" vertex="1">
                    <mxGeometry x="190" y="120" width="100" height="30" as="geometry"/>
                </mxCell>
                <mxCell id="lihsfqMF-rrV9TS9kK8D-29" value="dropdown" style="rounded=0;whiteSpace=wrap;html=1;" parent="lihsfqMF-rrV9TS9kK8D-1" vertex="1">
                    <mxGeometry x="300" y="120" width="240" height="30" as="geometry"/>
                </mxCell>
                <mxCell id="lihsfqMF-rrV9TS9kK8D-30" value="タイトル" style="text;html=1;strokeColor=none;fillColor=none;align=center;verticalAlign=middle;whiteSpace=wrap;rounded=0;" parent="lihsfqMF-rrV9TS9kK8D-1" vertex="1">
                    <mxGeometry x="190" y="160" width="100" height="30" as="geometry"/>
                </mxCell>
                <mxCell id="lihsfqMF-rrV9TS9kK8D-31" value="text" style="rounded=0;whiteSpace=wrap;html=1;" parent="lihsfqMF-rrV9TS9kK8D-1" vertex="1">
                    <mxGeometry x="300" y="160" width="240" height="30" as="geometry"/>
                </mxCell>
                <mxCell id="lihsfqMF-rrV9TS9kK8D-32" value="内容" style="text;html=1;strokeColor=none;fillColor=none;align=center;verticalAlign=middle;whiteSpace=wrap;rounded=0;" parent="lihsfqMF-rrV9TS9kK8D-1" vertex="1">
                    <mxGeometry x="190" y="200" width="100" height="30" as="geometry"/>
                </mxCell>
                <mxCell id="lihsfqMF-rrV9TS9kK8D-33" value="text box&lt;br&gt;markdown許容" style="rounded=0;whiteSpace=wrap;html=1;" parent="lihsfqMF-rrV9TS9kK8D-1" vertex="1">
                    <mxGeometry x="300" y="210" width="240" height="200" as="geometry"/>
                </mxCell>
            </root>
        </mxGraphModel>
    </diagram>
</mxfile>